<svg width="30" height="30" viewBox="0 0 30 30" fill="none" xmlns="http://www.w3.org/2000/svg">
<path d="M2.04154 16.7793H3.50841C3.83996 16.7793 4.11004 17.0456 4.11004 17.3724V27.3419C4.11004 28.2554 4.86531 29 5.79202 29H10.4902C11.4169 29 12.1722 28.2554 12.1722 27.3419V22.2065C12.1722 21.7903 12.515 21.4523 12.9388 21.4523H17.0612C17.4833 21.4523 17.8262 21.7903 17.8262 22.2065V27.3419C17.8262 28.2554 18.5815 29 19.5082 29H24.2064C25.1331 29 25.8883 28.2554 25.8883 27.3419V17.3724C25.8883 17.0456 26.1584 16.7793 26.49 16.7793H27.9585C28.586 16.7793 29.1278 16.4253 29.3736 15.8562C29.6194 15.287 29.5013 14.6556 29.0663 14.2108L16.9998 1.84022C16.4725 1.29814 15.7609 1 14.9992 1C14.2375 1 13.5258 1.29814 12.9986 1.84022L0.933705 14.2108C0.498656 14.6572 0.380595 15.287 0.626421 15.8562C0.872248 16.4253 1.41404 16.7793 2.04154 16.7793ZM1.59355 14.8358L13.6585 2.46521C14.0126 2.10329 14.4881 1.904 14.9992 1.904C15.5103 1.904 15.9857 2.10329 16.3399 2.4668L28.4064 14.8374C28.5843 15.0207 28.6312 15.2694 28.531 15.5038C28.4291 15.7382 28.2156 15.8769 27.9585 15.8769H26.49C25.6538 15.8769 24.973 16.5481 24.973 17.3724V27.3419C24.973 27.758 24.6301 28.096 24.208 28.096H19.5098C19.0877 28.096 18.7432 27.758 18.7432 27.3419V22.2065C18.7432 21.2929 17.9895 20.5483 17.0612 20.5483H12.9388C12.0121 20.5483 11.2568 21.2913 11.2568 22.2065V27.3419C11.2568 27.758 10.9139 28.096 10.4918 28.096H5.79202C5.3699 28.096 5.02542 27.758 5.02542 27.3419V17.3724C5.02542 16.5481 4.34455 15.8769 3.50841 15.8769H2.04154C1.78439 15.8769 1.5693 15.7366 1.46902 15.5038C1.36714 15.2678 1.41404 15.0191 1.59355 14.8358Z" fill="white" stroke="#F2F4F4"/>
</svg>
