<svg width="26" height="24" viewBox="0 0 26 24" fill="none" xmlns="http://www.w3.org/2000/svg">
<path d="M2.27576 13.4616H3.48972C3.7641 13.4616 3.98762 13.6803 3.98762 13.9488V22.138C3.98762 22.8884 4.61267 23.5 5.3796 23.5H9.26776C10.0347 23.5 10.6597 22.8884 10.6597 22.138V17.9196C10.6597 17.5778 10.9435 17.3001 11.2942 17.3001H14.7058C15.0552 17.3001 15.3389 17.5778 15.3389 17.9196V22.138C15.3389 22.8884 15.964 23.5 16.7309 23.5H20.6191C21.386 23.5 22.011 22.8884 22.011 22.138V13.9488C22.011 13.6803 22.2346 13.4616 22.5089 13.4616H23.7242C24.2436 13.4616 24.6919 13.1708 24.8954 12.7033C25.0988 12.2357 25.0011 11.7171 24.6411 11.3517L14.655 1.19018C14.2186 0.744904 13.6297 0.5 12.9993 0.5C12.3689 0.5 11.78 0.744904 11.3437 1.19018L1.35893 11.3517C0.998888 11.7184 0.901182 12.2357 1.10462 12.7033C1.30807 13.1708 1.75644 13.4616 2.27576 13.4616ZM1.90501 11.8651L11.8898 1.70356C12.1829 1.40627 12.5764 1.24257 12.9993 1.24257C13.4223 1.24257 13.8158 1.40627 14.1089 1.70487L24.095 11.8664C24.2422 12.017 24.281 12.2213 24.198 12.4138C24.1137 12.6064 23.9371 12.7203 23.7242 12.7203H22.5089C21.817 12.7203 21.2535 13.2717 21.2535 13.9488V22.138C21.2535 22.4798 20.9697 22.7574 20.6204 22.7574H16.7322C16.3829 22.7574 16.0978 22.4798 16.0978 22.138V17.9196C16.0978 17.1692 15.4741 16.5576 14.7058 16.5576H11.2942C10.5272 16.5576 9.90218 17.1679 9.90218 17.9196V22.138C9.90218 22.4798 9.61843 22.7574 9.2691 22.7574H5.3796C5.03027 22.7574 4.74518 22.4798 4.74518 22.138V13.9488C4.74518 13.2717 4.1817 12.7203 3.48972 12.7203H2.27576C2.06295 12.7203 1.88493 12.6051 1.80195 12.4138C1.71763 12.22 1.75644 12.0157 1.90501 11.8651Z" fill="white" stroke="#09090B"/>
</svg>
