<svg width="28" height="28" viewBox="0 0 28 28" fill="none" xmlns="http://www.w3.org/2000/svg">
<path d="M10.0218 15.7617L17.9901 20.4051M17.9784 7.59505L10.0218 12.2384M24.5 5.83337C24.5 7.76637 22.933 9.33337 21 9.33337C19.067 9.33337 17.5 7.76637 17.5 5.83337C17.5 3.90038 19.067 2.33337 21 2.33337C22.933 2.33337 24.5 3.90038 24.5 5.83337ZM10.5 14C10.5 15.933 8.933 17.5 7 17.5C5.067 17.5 3.5 15.933 3.5 14C3.5 12.067 5.067 10.5 7 10.5C8.933 10.5 10.5 12.067 10.5 14ZM24.5 22.1667C24.5 24.0997 22.933 25.6667 21 25.6667C19.067 25.6667 17.5 24.0997 17.5 22.1667C17.5 20.2337 19.067 18.6667 21 18.6667C22.933 18.6667 24.5 20.2337 24.5 22.1667Z" stroke="#F2F4F4" stroke-width="2" stroke-linecap="round" stroke-linejoin="round"/>
</svg>
